CalSansUI-Bold.ufo
<glyph name="dollar" format="2">
  <advance width="580"/>
  <unicode hex="0024"/>
  <anchor x="304" y="653" name="_TopCurrency"/>
  <outline>
    <contour>
      <point x="295" y="27" type="curve" smooth="yes"/>
      <point x="454" y="27"/>
      <point x="551" y="103"/>
      <point x="551" y="230" type="curve" smooth="yes"/>
      <point x="551" y="490"/>
      <point x="222" y="359"/>
      <point x="222" y="488" type="curve" smooth="yes"/>
      <point x="222" y="516"/>
      <point x="252" y="539"/>
      <point x="306" y="539" type="curve" smooth="yes"/>
      <point x="367" y="539"/>
      <point x="400" y="516"/>
      <point x="431" y="464" type="curve"/>
      <point x="547" y="544" type="line"/>
      <point x="491" y="623"/>
      <point x="429" y="672"/>
      <point x="320" y="672" type="curve" smooth="yes"/>
      <point x="172" y="672"/>
      <point x="71" y="599"/>
      <point x="71" y="473" type="curve" smooth="yes"/>
      <point x="71" y="232"/>
      <point x="400" y="354"/>
      <point x="400" y="216" type="curve" smooth="yes"/>
      <point x="400" y="182"/>
      <point x="359" y="161"/>
      <point x="298" y="161" type="curve" smooth="yes"/>
      <point x="240" y="161"/>
      <point x="191" y="187"/>
      <point x="153" y="254" type="curve"/>
      <point x="32" y="170" type="line"/>
      <point x="98" y="66"/>
      <point x="184" y="27"/>
    </contour>
    <component base="verticalTopCurrencycomb" xOffset="304"/>
    <component base="verticalBottomCurrencycomb" xOffset="304"/>
  </outline>
</glyph>
<glyph name="parenright" format="2">
  <advance width="368"/>
  <unicode hex="0029"/>
  <outline>
    <contour>
      <point x="158" y="-214" type="line"/>
      <point x="345" y="65"/>
      <point x="344" y="545"/>
      <point x="158" y="803" type="curve"/>
      <point x="40" y="740" type="line"/>
      <point x="205" y="489"/>
      <point x="199" y="141"/>
      <point x="40" y="-151" type="curve"/>
    </contour>
  </outline>
</glyph>
<glyph name="less" format="2">
  <advance width="596"/>
  <unicode hex="003C"/>
  <outline>
    <contour>
      <point x="353" y="70" type="line"/>
      <point x="522" y="70" type="line"/>
      <point x="262" y="312" type="line"/>
      <point x="262" y="317" type="line"/>
      <point x="522" y="550" type="line"/>
      <point x="353" y="550" type="line"/>
      <point x="90" y="310" type="line"/>
    </contour>
  </outline>
</glyph>
<glyph name="L" format="2">
  <advance width="536"/>
  <unicode hex="004C"/>
  <anchor x="293" y="0" name="bottom"/>
  <anchor x="318" y="370" name="center"/>
  <anchor x="481" y="0" name="ogonek"/>
  <anchor x="146" y="700" name="top"/>
  <anchor x="308" y="700" name="topright"/>
  <outline>
    <contour>
      <point x="80" y="0" type="line"/>
      <point x="481" y="0" type="line"/>
      <point x="481" y="135" type="line"/>
      <point x="220" y="135" type="line"/>
      <point x="220" y="700" type="line"/>
      <point x="80" y="700" type="line"/>
    </contour>
  </outline>
</glyph>
<glyph name="P" format="2">
  <advance width="619"/>
  <unicode hex="0050"/>
  <anchor x="150" y="0" name="bottom"/>
  <anchor x="220" y="0" name="ogonek"/>
  <anchor x="315" y="700" name="top"/>
  <outline>
    <contour>
      <point x="80" y="0" type="line"/>
      <point x="220" y="0" type="line"/>
      <point x="220" y="244" type="line"/>
      <point x="326" y="244" type="line" smooth="yes"/>
      <point x="483" y="244"/>
      <point x="579" y="323"/>
      <point x="579" y="471" type="curve" smooth="yes"/>
      <point x="579" y="618"/>
      <point x="483" y="700"/>
      <point x="326" y="700" type="curve" smooth="yes"/>
      <point x="80" y="700" type="line"/>
    </contour>
    <contour>
      <point x="220" y="379" type="line"/>
      <point x="220" y="565" type="line"/>
      <point x="318" y="565" type="line" smooth="yes"/>
      <point x="394" y="565"/>
      <point x="437" y="536"/>
      <point x="437" y="470" type="curve" smooth="yes"/>
      <point x="437" y="403"/>
      <point x="394" y="379"/>
      <point x="318" y="379" type="curve" smooth="yes"/>
    </contour>
  </outline>
</glyph>
<glyph name="Q" format="2">
  <advance width="794"/>
  <unicode hex="0051"/>
  <anchor x="390" y="0" name="bottom"/>
  <anchor x="383" y="338" name="center"/>
  <anchor x="490" y="0" name="ogonek"/>
  <anchor x="390" y="700" name="top"/>
  <anchor x="600" y="700" name="topright"/>
  <outline>
    <contour>
      <point x="578" y="-57" type="line"/>
      <point x="730" y="-57" type="line"/>
      <point x="592" y="150" type="line"/>
      <point x="587" y="172" type="line"/>
      <point x="529" y="258" type="line"/>
      <point x="377" y="258" type="line"/>
      <point x="488" y="91" type="line"/>
      <point x="491" y="71" type="line"/>
    </contour>
    <component base="O"/>
  </outline>
</glyph>
<glyph name="c" format="2">
  <advance width="560"/>
  <unicode hex="0063"/>
  <anchor x="305" y="0" name="bottom"/>
  <anchor x="400" y="0" name="ogonek"/>
  <anchor x="308" y="505" name="top"/>
  <outline>
    <contour>
      <point x="304" y="-13" type="curve" smooth="yes"/>
      <point x="411" y="-13"/>
      <point x="478" y="25"/>
      <point x="527" y="88" type="curve"/>
      <point x="425" y="168" type="line"/>
      <point x="402" y="137"/>
      <point x="365" y="110"/>
      <point x="316" y="110" type="curve" smooth="yes"/>
      <point x="232" y="110"/>
      <point x="175" y="167"/>
      <point x="175" y="254" type="curve" smooth="yes"/>
      <point x="175" y="340"/>
      <point x="230" y="395"/>
      <point x="313" y="395" type="curve" smooth="yes"/>
      <point x="370" y="395"/>
      <point x="409" y="367"/>
      <point x="426" y="334" type="curve"/>
      <point x="527" y="414" type="line"/>
      <point x="479" y="481"/>
      <point x="402" y="519"/>
      <point x="301" y="518" type="curve" smooth="yes"/>
      <point x="139" y="516"/>
      <point x="40" y="398"/>
      <point x="40" y="254" type="curve" smooth="yes"/>
      <point x="40" y="111"/>
      <point x="142" y="-13"/>
    </contour>
  </outline>
</glyph>
<glyph name="e" format="2">
  <advance width="587"/>
  <unicode hex="0065"/>
  <anchor x="310" y="0" name="bottom"/>
  <anchor x="355" y="26" name="ogonek"/>
  <anchor x="301" y="505" name="top"/>
  <outline>
    <contour>
      <point x="308" y="-13" type="curve" smooth="yes"/>
      <point x="402" y="-13"/>
      <point x="481" y="26"/>
      <point x="524" y="75" type="curve"/>
      <point x="435" y="165" type="line"/>
      <point x="409" y="129"/>
      <point x="361" y="107"/>
      <point x="311" y="107" type="curve" smooth="yes"/>
      <point x="224" y="107"/>
      <point x="182" y="174"/>
      <point x="176" y="239" type="curve"/>
      <point x="175" y="260" type="line"/>
      <point x="172" y="357"/>
      <point x="224" y="409"/>
      <point x="299" y="409" type="curve" smooth="yes"/>
      <point x="379" y="409"/>
      <point x="414" y="357"/>
      <point x="411" y="265" type="curve"/>
      <point x="451" y="316" type="line"/>
      <point x="121" y="316" type="line"/>
      <point x="121" y="216" type="line"/>
      <point x="543" y="216" type="line"/>
      <point x="546" y="225"/>
      <point x="547" y="245"/>
      <point x="547" y="262" type="curve" smooth="yes"/>
      <point x="547" y="416"/>
      <point x="449" y="518"/>
      <point x="301" y="518" type="curve" smooth="yes"/>
      <point x="153" y="518"/>
      <point x="40" y="419"/>
      <point x="40" y="249" type="curve" smooth="yes"/>
      <point x="40" y="99"/>
      <point x="146" y="-13"/>
    </contour>
  </outline>
</glyph>
<glyph name="h" format="2">
  <advance width="605"/>
  <unicode hex="0068"/>
  <anchor x="138" y="588" name="bar"/>
  <anchor x="305" y="0" name="bottom"/>
  <anchor x="405" y="0" name="ogonek"/>
  <anchor x="138" y="700" name="top"/>
  <outline>
    <contour>
      <point x="70" y="0" type="line"/>
      <point x="205" y="0" type="line"/>
      <point x="205" y="291" type="line" smooth="yes"/>
      <point x="205" y="358"/>
      <point x="243" y="400"/>
      <point x="303" y="400" type="curve" smooth="yes"/>
      <point x="366" y="400"/>
      <point x="405" y="358"/>
      <point x="405" y="291" type="curve" smooth="yes"/>
      <point x="405" y="0" type="line"/>
      <point x="540" y="0" type="line"/>
      <point x="540" y="324" type="line" smooth="yes"/>
      <point x="540" y="435"/>
      <point x="454" y="518"/>
      <point x="357" y="518" type="curve" smooth="yes"/>
      <point x="285" y="518"/>
      <point x="234" y="478"/>
      <point x="211" y="441" type="curve"/>
      <point x="205" y="441" type="line"/>
      <point x="205" y="700" type="line"/>
      <point x="70" y="700" type="line"/>
    </contour>
  </outline>
</glyph>
<glyph name="k" format="2">
  <advance width="578"/>
  <unicode hex="006B"/>
  <anchor x="289" y="0" name="bottom"/>
  <anchor x="289" y="700" name="top"/>
  <outline>
    <contour>
      <point x="70" y="0" type="line"/>
      <point x="205" y="0" type="line"/>
      <point x="205" y="250" type="line"/>
      <point x="210" y="250" type="line"/>
      <point x="394" y="0" type="line"/>
      <point x="553" y="1" type="line"/>
      <point x="344" y="288" type="line"/>
      <point x="552" y="505" type="line"/>
      <point x="380" y="505" type="line"/>
      <point x="210" y="310" type="line"/>
      <point x="205" y="310" type="line"/>
      <point x="205" y="700" type="line"/>
      <point x="70" y="700" type="line"/>
    </contour>
  </outline>
</glyph>
<glyph name="o" format="2">
  <advance width="614"/>
  <unicode hex="006F"/>
  <anchor x="307" y="0" name="bottom"/>
  <anchor x="307" y="260" name="center"/>
  <anchor x="375" y="-5" name="ogonek"/>
  <anchor x="307" y="505" name="top"/>
  <anchor x="472" y="505" name="topright"/>
  <outline>
    <contour>
      <point x="307" y="-13" type="curve" smooth="yes"/>
      <point x="460" y="-13"/>
      <point x="574" y="101"/>
      <point x="574" y="252" type="curve" smooth="yes"/>
      <point x="574" y="404"/>
      <point x="460" y="518"/>
      <point x="307" y="518" type="curve" smooth="yes"/>
      <point x="154" y="518"/>
      <point x="40" y="404"/>
      <point x="40" y="252" type="curve" smooth="yes"/>
      <point x="40" y="101"/>
      <point x="154" y="-13"/>
    </contour>
    <contour>
      <point x="307" y="110" type="curve" smooth="yes"/>
      <point x="231" y="110"/>
      <point x="175" y="165"/>
      <point x="175" y="252" type="curve" smooth="yes"/>
      <point x="175" y="340"/>
      <point x="231" y="395"/>
      <point x="307" y="395" type="curve" smooth="yes"/>
      <point x="383" y="395"/>
      <point x="439" y="340"/>
      <point x="439" y="252" type="curve" smooth="yes"/>
      <point x="439" y="165"/>
      <point x="383" y="110"/>
    </contour>
  </outline>
</glyph>
<glyph name="v" format="2">
  <advance width="588"/>
  <unicode hex="0076"/>
  <anchor x="296" y="0" name="bottom"/>
  <anchor x="296" y="505" name="top"/>
  <outline>
    <contour>
      <point x="222" y="0" type="line"/>
      <point x="367" y="0" type="line"/>
      <point x="573" y="505" type="line"/>
      <point x="416" y="505" type="line"/>
      <point x="322" y="217" type="line" smooth="yes"/>
      <point x="315" y="197"/>
      <point x="305" y="162"/>
      <point x="300" y="131" type="curve"/>
      <point x="292" y="131" type="line"/>
      <point x="287" y="162"/>
      <point x="276" y="197"/>
      <point x="269" y="217" type="curve" smooth="yes"/>
      <point x="175" y="505" type="line"/>
      <point x="15" y="505" type="line"/>
    </contour>
  </outline>
</glyph>
<glyph name="w" format="2">
  <advance width="876"/>
  <unicode hex="0077"/>
  <anchor x="442" y="0" name="bottom"/>
  <anchor x="442" y="505" name="top"/>
  <outline>
    <contour>
      <point x="182" y="0" type="line"/>
      <point x="337" y="0" type="line"/>
      <point x="417" y="274" type="line" smooth="yes"/>
      <point x="426" y="306"/>
      <point x="432" y="338"/>
      <point x="437" y="374" type="curve"/>
      <point x="445" y="374" type="line"/>
      <point x="450" y="338"/>
      <point x="457" y="306"/>
      <point x="467" y="274" type="curve" smooth="yes"/>
      <point x="549" y="0" type="line"/>
      <point x="695" y="0" type="line"/>
      <point x="861" y="505" type="line"/>
      <point x="714" y="505" type="line"/>
      <point x="647" y="232" type="line" smooth="yes"/>
      <point x="639" y="201"/>
      <point x="630" y="167"/>
      <point x="626" y="131" type="curve"/>
      <point x="618" y="131" type="line"/>
      <point x="614" y="167"/>
      <point x="606" y="202"/>
      <point x="597" y="233" type="curve" smooth="yes"/>
      <point x="519" y="505" type="line"/>
      <point x="364" y="505" type="line"/>
      <point x="286" y="233" type="line" smooth="yes"/>
      <point x="277" y="201"/>
      <point x="270" y="167"/>
      <point x="265" y="131" type="curve"/>
      <point x="257" y="131" type="line"/>
      <point x="252" y="167"/>
      <point x="244" y="201"/>
      <point x="237" y="232" type="curve" smooth="yes"/>
      <point x="173" y="505" type="line"/>
      <point x="15" y="505" type="line"/>
    </contour>
  </outline>
</glyph>
<glyph name="logicalnot" format="2">
  <advance width="596"/>
  <unicode hex="00AC"/>
  <outline>
    <contour>
      <point x="378" y="188" type="line"/>
      <point x="498" y="188" type="line"/>
      <point x="498" y="400" type="line"/>
      <point x="84" y="400" type="line"/>
      <point x="84" y="290" type="line"/>
      <point x="378" y="290" type="line"/>
    </contour>
  </outline>
</glyph>
<glyph name="micro" format="2">
  <advance width="601"/>
  <unicode hex="00B5"/>
  <anchor x="292" y="0" name="bottom"/>
  <anchor x="400" y="0" name="ogonek"/>
  <anchor x="302" y="505" name="top"/>
  <anchor x="531" y="505" name="topright"/>
  <outline>
    <contour>
      <point x="212" y="-3" type="line"/>
      <point x="227" y="-10"/>
      <point x="237" y="-12"/>
      <point x="253" y="-12" type="curve" smooth="yes"/>
      <point x="325" y="-12"/>
      <point x="371" y="28"/>
      <point x="394" y="65" type="curve"/>
      <point x="400" y="65" type="line"/>
      <point x="400" y="0" type="line"/>
      <point x="531" y="0" type="line"/>
      <point x="531" y="505" type="line"/>
      <point x="396" y="505" type="line"/>
      <point x="396" y="215" type="line" smooth="yes"/>
      <point x="396" y="148"/>
      <point x="358" y="106"/>
      <point x="302" y="106" type="curve" smooth="yes"/>
      <point x="244" y="106"/>
      <point x="205" y="148"/>
      <point x="205" y="215" type="curve" smooth="yes"/>
      <point x="205" y="505" type="line"/>
      <point x="70" y="505" type="line"/>
      <point x="70" y="-220" type="line"/>
      <point x="206" y="-220" type="line"/>
      <point x="206" y="-3" type="line"/>
    </contour>
  </outline>
</glyph>
<glyph name="multiply" format="2">
  <advance width="596"/>
  <unicode hex="00D7"/>
  <outline>
    <contour>
      <point x="421" y="74" type="line"/>
      <point x="498" y="149" type="line"/>
      <point x="161" y="486" type="line"/>
      <point x="84" y="410" type="line"/>
    </contour>
    <contour>
      <point x="160" y="72" type="line"/>
      <point x="496" y="410" type="line"/>
      <point x="421" y="487" type="line"/>
      <point x="85" y="149" type="line"/>
    </contour>
  </outline>
</glyph>
<glyph name="ae" format="2">
  <advance width="884"/>
  <unicode hex="00E6"/>
  <anchor x="420" y="0" name="bottom"/>
  <anchor x="625" y="-13" name="ogonek"/>
  <anchor x="432" y="505" name="top"/>
  <outline>
    <contour>
      <point x="240" y="-13" type="curve" smooth="yes"/>
      <point x="330" y="-13"/>
      <point x="385" y="23"/>
      <point x="419" y="76" type="curve"/>
      <point x="424" y="76" type="line"/>
      <point x="452" y="23"/>
      <point x="537" y="-13"/>
      <point x="613" y="-13" type="curve" smooth="yes"/>
      <point x="699" y="-13"/>
      <point x="778" y="26"/>
      <point x="821" y="75" type="curve"/>
      <point x="732" y="165" type="line"/>
      <point x="706" y="129"/>
      <point x="658" y="107"/>
      <point x="608" y="107" type="curve" smooth="yes"/>
      <point x="531" y="107"/>
      <point x="477" y="174"/>
      <point x="483" y="239" type="curve"/>
      <point x="482" y="260" type="line"/>
      <point x="482" y="357"/>
      <point x="531" y="395"/>
      <point x="596" y="395" type="curve" smooth="yes"/>
      <point x="676" y="395"/>
      <point x="711" y="357"/>
      <point x="708" y="265" type="curve"/>
      <point x="748" y="316" type="line"/>
      <point x="459" y="316" type="line"/>
      <point x="482" y="216" type="line"/>
      <point x="840" y="216" type="line"/>
      <point x="843" y="225"/>
      <point x="844" y="245"/>
      <point x="844" y="262" type="curve" smooth="yes"/>
      <point x="844" y="416"/>
      <point x="746" y="518"/>
      <point x="598" y="518" type="curve" smooth="yes"/>
      <point x="527" y="518"/>
      <point x="469" y="493"/>
      <point x="432" y="455" type="curve"/>
      <point x="425" y="455" type="line"/>
      <point x="389" y="493"/>
      <point x="335" y="518"/>
      <point x="267" y="518" type="curve" smooth="yes"/>
      <point x="177" y="518"/>
      <point x="113" y="489"/>
      <point x="53" y="422" type="curve"/>
      <point x="142" y="337" type="line"/>
      <point x="176" y="378"/>
      <point x="215" y="395"/>
      <point x="271" y="395" type="curve" smooth="yes"/>
      <point x="331" y="395"/>
      <point x="363" y="362"/>
      <point x="363" y="333" type="curve" smooth="yes"/>
      <point x="363" y="285" type="line"/>
      <point x="388" y="318" type="line"/>
      <point x="318" y="315" type="line" smooth="yes"/>
      <point x="120" y="308"/>
      <point x="45" y="237"/>
      <point x="45" y="144" type="curve" smooth="yes"/>
      <point x="45" y="55"/>
      <point x="119" y="-13"/>
    </contour>
    <contour>
      <point x="248" y="107" type="curve" smooth="yes"/>
      <point x="204" y="107"/>
      <point x="174" y="124"/>
      <point x="174" y="155" type="curve" smooth="yes"/>
      <point x="174" y="197"/>
      <point x="246" y="211"/>
      <point x="331" y="214" type="curve" smooth="yes"/>
      <point x="388" y="216" type="line"/>
      <point x="363" y="250" type="line"/>
      <point x="363" y="210" type="line" smooth="yes"/>
      <point x="363" y="161"/>
      <point x="328" y="107"/>
    </contour>
  </outline>
</glyph>
<glyph name="oe" format="2">
  <advance width="985"/>
  <unicode hex="0153"/>
  <anchor x="504" y="0" name="bottom"/>
  <anchor x="504" y="505" name="top"/>
  <outline>
    <contour>
      <point x="307" y="-13" type="curve" smooth="yes"/>
      <point x="460" y="-13"/>
      <point x="560" y="101"/>
      <point x="560" y="252" type="curve" smooth="yes"/>
      <point x="560" y="404"/>
      <point x="460" y="518"/>
      <point x="307" y="518" type="curve" smooth="yes"/>
      <point x="154" y="518"/>
      <point x="40" y="404"/>
      <point x="40" y="252" type="curve" smooth="yes"/>
      <point x="40" y="101"/>
      <point x="154" y="-13"/>
    </contour>
    <contour>
      <point x="307" y="110" type="curve" smooth="yes"/>
      <point x="231" y="110"/>
      <point x="175" y="165"/>
      <point x="175" y="252" type="curve" smooth="yes"/>
      <point x="175" y="340"/>
      <point x="231" y="395"/>
      <point x="307" y="395" type="curve" smooth="yes"/>
      <point x="383" y="395"/>
      <point x="439" y="340"/>
      <point x="439" y="252" type="curve" smooth="yes"/>
      <point x="439" y="165"/>
      <point x="383" y="110"/>
    </contour>
    <contour>
      <point x="706" y="-13" type="curve" smooth="yes"/>
      <point x="800" y="-13"/>
      <point x="879" y="26"/>
      <point x="922" y="75" type="curve"/>
      <point x="833" y="165" type="line"/>
      <point x="807" y="129"/>
      <point x="759" y="107"/>
      <point x="709" y="107" type="curve" smooth="yes"/>
      <point x="622" y="107"/>
      <point x="580" y="174"/>
      <point x="574" y="239" type="curve"/>
      <point x="573" y="260" type="line"/>
      <point x="573" y="357"/>
      <point x="622" y="409"/>
      <point x="697" y="409" type="curve" smooth="yes"/>
      <point x="777" y="409"/>
      <point x="812" y="357"/>
      <point x="809" y="265" type="curve"/>
      <point x="849" y="316" type="line"/>
      <point x="519" y="316" type="line"/>
      <point x="519" y="216" type="line"/>
      <point x="941" y="216" type="line"/>
      <point x="944" y="225"/>
      <point x="945" y="245"/>
      <point x="945" y="262" type="curve" smooth="yes"/>
      <point x="945" y="416"/>
      <point x="847" y="518"/>
      <point x="699" y="518" type="curve" smooth="yes"/>
      <point x="551" y="518"/>
      <point x="452" y="419"/>
      <point x="452" y="249" type="curve" smooth="yes"/>
      <point x="452" y="99"/>
      <point x="544" y="-13"/>
    </contour>
    <contour>
      <point x="475" y="431" type="line"/>
      <point x="475" y="75" type="line"/>
      <point x="529" y="75" type="line"/>
      <point x="529" y="431" type="line"/>
    </contour>
  </outline>
</glyph>
<glyph name="ringcomb" format="2">
  <unicode hex="030A"/>
  <anchor x="0" y="505" name="_top"/>
  <anchor x="0" y="734" name="top"/>
  <outline>
    <contour>
      <point x="0" y="561" type="curve" smooth="yes"/>
      <point x="59" y="561"/>
      <point x="107" y="608"/>
      <point x="107" y="666" type="curve" smooth="yes"/>
      <point x="107" y="724"/>
      <point x="59" y="771"/>
      <point x="0" y="771" type="curve" smooth="yes"/>
      <point x="-58" y="771"/>
      <point x="-107" y="724"/>
      <point x="-107" y="666" type="curve" smooth="yes"/>
      <point x="-107" y="608"/>
      <point x="-58" y="561"/>
    </contour>
    <contour>
      <point x="0" y="628" type="curve" smooth="yes"/>
      <point x="-20" y="628"/>
      <point x="-38" y="646"/>
      <point x="-38" y="666" type="curve" smooth="yes"/>
      <point x="-38" y="686"/>
      <point x="-20" y="703"/>
      <point x="0" y="703" type="curve" smooth="yes"/>
      <point x="20" y="703"/>
      <point x="38" y="686"/>
      <point x="38" y="666" type="curve" smooth="yes"/>
      <point x="38" y="646"/>
      <point x="20" y="628"/>
    </contour>
  </outline>
</glyph>
<glyph name="horncomb" format="2">
  <unicode hex="031B"/>
  <anchor x="180" y="505" name="_topright"/>
  <outline>
    <contour>
      <point x="183" y="407" type="curve" smooth="yes"/>
      <point x="249" y="407"/>
      <point x="323" y="470"/>
      <point x="323" y="561" type="curve" smooth="yes"/>
      <point x="323" y="582"/>
      <point x="318" y="611"/>
      <point x="313" y="626" type="curve"/>
      <point x="199" y="626" type="line"/>
      <point x="205" y="609"/>
      <point x="208" y="591"/>
      <point x="208" y="576" type="curve" smooth="yes"/>
      <point x="209" y="534"/>
      <point x="194" y="505"/>
      <point x="138" y="505" type="curve" smooth="yes"/>
      <point x="99" y="505"/>
      <point x="70" y="518"/>
      <point x="15" y="518" type="curve"/>
      <point x="2" y="422" type="line"/>
      <point x="101" y="422"/>
      <point x="96" y="407"/>
    </contour>
  </outline>
</glyph>
<glyph name="macronbelowcomb" format="2">
  <unicode hex="0331"/>
  <anchor x="0" y="0" name="_bottom"/>
  <outline>
    <contour>
      <point x="-153" y="-182" type="line"/>
      <point x="153" y="-182" type="line"/>
      <point x="153" y="-92" type="line"/>
      <point x="-153" y="-92" type="line"/>
    </contour>
  </outline>
</glyph>
<glyph name="colonsign" format="2">
  <advance width="643"/>
  <unicode hex="20A1"/>
  <outline>
    <contour>
      <point x="377" y="27" type="curve" smooth="yes"/>
      <point x="494" y="27"/>
      <point x="563" y="64"/>
      <point x="621" y="134" type="curve"/>
      <point x="521" y="220" type="line"/>
      <point x="479" y="166"/>
      <point x="438" y="153"/>
      <point x="380" y="153" type="curve" smooth="yes"/>
      <point x="266" y="153"/>
      <point x="173" y="217"/>
      <point x="173" y="351" type="curve" smooth="yes"/>
      <point x="173" y="484"/>
      <point x="265" y="547"/>
      <point x="377" y="547" type="curve" smooth="yes"/>
      <point x="430" y="547"/>
      <point x="473" y="535"/>
      <point x="521" y="480" type="curve"/>
      <point x="621" y="574" type="line"/>
      <point x="544" y="648"/>
      <point x="481" y="673"/>
      <point x="377" y="673" type="curve" smooth="yes"/>
      <point x="171" y="673"/>
      <point x="42" y="530"/>
      <point x="42" y="349" type="curve" smooth="yes"/>
      <point x="42" y="169"/>
      <point x="179" y="27"/>
    </contour>
    <contour>
      <point x="430" y="-69" type="line"/>
      <point x="518" y="775" type="line"/>
      <point x="433" y="775" type="line"/>
      <point x="345" y="-69" type="line"/>
    </contour>
    <contour>
      <point x="281" y="-69" type="line"/>
      <point x="369" y="775" type="line"/>
      <point x="284" y="775" type="line"/>
      <point x="196" y="-69" type="line"/>
    </contour>
  </outline>
</glyph>
<glyph name="cedi" format="2">
  <advance width="659"/>
  <unicode hex="20B5"/>
  <outline>
    <contour>
      <point x="377" y="27" type="curve" smooth="yes"/>
      <point x="499" y="27"/>
      <point x="584" y="76"/>
      <point x="637" y="140" type="curve"/>
      <point x="534" y="230" type="line"/>
      <point x="495" y="187"/>
      <point x="439" y="165"/>
      <point x="380" y="165" type="curve" smooth="yes"/>
      <point x="270" y="165"/>
      <point x="185" y="221"/>
      <point x="185" y="349" type="curve" smooth="yes"/>
      <point x="185" y="477"/>
      <point x="270" y="535"/>
      <point x="377" y="535" type="curve" smooth="yes"/>
      <point x="449" y="535"/>
      <point x="494" y="510"/>
      <point x="536" y="466" type="curve"/>
      <point x="636" y="561" type="line"/>
      <point x="570" y="639"/>
      <point x="478" y="673"/>
      <point x="377" y="673" type="curve" smooth="yes"/>
      <point x="191" y="673"/>
      <point x="42" y="550"/>
      <point x="42" y="349" type="curve" smooth="yes"/>
      <point x="42" y="149"/>
      <point x="199" y="27"/>
    </contour>
    <contour>
      <point x="332" y="-69" type="line"/>
      <point x="422" y="-69" type="line"/>
      <point x="422" y="775" type="line"/>
      <point x="332" y="775" type="line"/>
    </contour>
  </outline>
</glyph>
<glyph name="partialdiff" format="2">
  <advance width="620"/>
  <unicode hex="2202"/>
  <outline>
    <contour>
      <point x="303" y="-13" type="curve" smooth="yes"/>
      <point x="457" y="-13"/>
      <point x="573" y="89"/>
      <point x="573" y="283" type="curve" smooth="yes"/>
      <point x="573" y="346"/>
      <point x="557" y="398"/>
      <point x="533" y="450" type="curve" smooth="yes"/>
      <point x="476" y="564"/>
      <point x="369" y="667"/>
      <point x="244" y="756" type="curve"/>
      <point x="153" y="657" type="line"/>
      <point x="270" y="573"/>
      <point x="365" y="480"/>
      <point x="404" y="395" type="curve"/>
      <point x="404" y="377" type="line"/>
      <point x="419" y="341"/>
      <point x="429" y="301"/>
      <point x="429" y="261" type="curve" smooth="yes"/>
      <point x="429" y="167"/>
      <point x="381" y="114"/>
      <point x="303" y="114" type="curve" smooth="yes"/>
      <point x="226" y="114"/>
      <point x="177" y="173"/>
      <point x="177" y="241" type="curve" smooth="yes"/>
      <point x="177" y="311"/>
      <point x="226" y="365"/>
      <point x="303" y="365" type="curve" smooth="yes"/>
      <point x="362" y="365"/>
      <point x="413" y="346"/>
      <point x="434" y="312" type="curve"/>
      <point x="414" y="418" type="line"/>
      <point x="364" y="464"/>
      <point x="324" y="484"/>
      <point x="267" y="484" type="curve" smooth="yes"/>
      <point x="156" y="484"/>
      <point x="40" y="393"/>
      <point x="40" y="241" type="curve" smooth="yes"/>
      <point x="40" y="101"/>
      <point x="148" y="-13"/>
    </contour>
  </outline>
</glyph>
<glyph name="radical" format="2">
  <advance width="660"/>
  <unicode hex="221A"/>
  <outline>
    <contour>
      <point x="181" y="-220" type="line"/>
      <point x="327" y="-220" type="line"/>
      <point x="499" y="590" type="line"/>
      <point x="628" y="590" type="line"/>
      <point x="628" y="700" type="line"/>
      <point x="405" y="700" type="line"/>
      <point x="264" y="-12" type="line" smooth="yes"/>
      <point x="257" y="-48"/>
      <point x="253" y="-78"/>
      <point x="253" y="-106" type="curve"/>
      <point x="249" y="-106" type="line"/>
      <point x="247" y="-77"/>
      <point x="240" y="-48"/>
      <point x="232" y="-11" type="curve" smooth="yes"/>
      <point x="191" y="176" type="line"/>
      <point x="65" y="176" type="line"/>
    </contour>
  </outline>
</glyph>
<glyph name="notequal" format="2">
  <advance width="596"/>
  <unicode hex="2260"/>
  <outline>
    <contour>
      <point x="171" y="216" type="line"/>
      <point x="277" y="216" type="line"/>
      <point x="428" y="443" type="line"/>
      <point x="322" y="443" type="line"/>
    </contour>
    <contour>
      <point x="82" y="70" type="line"/>
      <point x="195" y="70" type="line"/>
      <point x="285" y="216" type="line"/>
      <point x="173" y="216" type="line"/>
    </contour>
    <contour>
      <point x="314" y="443" type="line"/>
      <point x="426" y="443" type="line"/>
      <point x="499" y="561" type="line"/>
      <point x="387" y="561" type="line"/>
    </contour>
    <component base="equal"/>
  </outline>
</glyph>
<glyph name="rightWhiteTriangle" format="2">
  <advance width="823"/>
  <unicode hex="25B7"/>
  <outline>
    <contour>
      <point x="90" y="-54" type="line"/>
      <point x="803" y="357" type="line"/>
      <point x="90" y="768" type="line"/>
    </contour>
    <contour>
      <point x="166" y="637" type="line"/>
      <point x="652" y="357" type="line"/>
      <point x="166" y="76" type="line"/>
    </contour>
  </outline>
</glyph>
<glyph name="whiteBullet" format="2">
  <advance width="396"/>
  <unicode hex="25E6"/>
  <outline>
    <contour>
      <point x="198" y="232" type="curve" smooth="yes"/>
      <point x="276" y="232"/>
      <point x="331" y="293"/>
      <point x="331" y="363" type="curve" smooth="yes"/>
      <point x="331" y="435"/>
      <point x="276" y="494"/>
      <point x="198" y="494" type="curve" smooth="yes"/>
      <point x="120" y="494"/>
      <point x="65" y="433"/>
      <point x="65" y="363" type="curve" smooth="yes"/>
      <point x="65" y="291"/>
      <point x="120" y="232"/>
    </contour>
    <contour>
      <point x="198" y="298" type="curve" smooth="yes"/>
      <point x="163" y="298"/>
      <point x="134" y="327"/>
      <point x="134" y="363" type="curve" smooth="yes"/>
      <point x="134" y="395"/>
      <point x="163" y="428"/>
      <point x="198" y="428" type="curve" smooth="yes"/>
      <point x="233" y="428"/>
      <point x="262" y="399"/>
      <point x="262" y="363" type="curve" smooth="yes"/>
      <point x="262" y="331"/>
      <point x="233" y="298"/>
    </contour>
  </outline>
</glyph>
<glyph name="heavyCheckMark" format="2">
  <advance width="600"/>
  <unicode hex="2714"/>
  <outline>
    <contour>
      <point x="186" y="157" type="curve" smooth="yes"/>
      <point x="209" y="138"/>
      <point x="236" y="120"/>
      <point x="285" y="157" type="curve" smooth="yes"/>
      <point x="362" y="215"/>
      <point x="501" y="463"/>
      <point x="536" y="568" type="curve" smooth="yes"/>
      <point x="549" y="605"/>
      <point x="512" y="627"/>
      <point x="491" y="596" type="curve" smooth="yes"/>
      <point x="397" y="451"/>
      <point x="323" y="331"/>
      <point x="273" y="273" type="curve" smooth="yes"/>
      <point x="259" y="257"/>
      <point x="247" y="258"/>
      <point x="230" y="274" type="curve" smooth="yes"/>
      <point x="198" y="304"/>
      <point x="176" y="331"/>
      <point x="151" y="381" type="curve" smooth="yes"/>
      <point x="136" y="411"/>
      <point x="102" y="406"/>
      <point x="77" y="369" type="curve" smooth="yes"/>
      <point x="59" y="344"/>
      <point x="53" y="308"/>
      <point x="64" y="290" type="curve" smooth="yes"/>
      <point x="89" y="246"/>
      <point x="139" y="196"/>
    </contour>
  </outline>
</glyph>
<glyph name="blackFourPointedStar" format="2">
  <advance width="585"/>
  <unicode hex="2726"/>
  <outline>
    <contour>
      <point x="286" y="39" type="curve"/>
      <point x="298" y="39" type="line"/>
      <point x="385" y="248"/>
      <point x="404" y="271"/>
      <point x="580" y="335" type="curve"/>
      <point x="580" y="349" type="line"/>
      <point x="404" y="413"/>
      <point x="385" y="436"/>
      <point x="298" y="645" type="curve"/>
      <point x="286" y="645" type="line"/>
      <point x="199" y="436"/>
      <point x="180" y="413"/>
      <point x="5" y="349" type="curve"/>
      <point x="5" y="335" type="line"/>
      <point x="180" y="271"/>
      <point x="199" y="248"/>
    </contour>
  </outline>
</glyph>
<glyph name="G.ss02" format="2">
  <advance width="776"/>
  <anchor x="399" y="0" name="bottom"/>
  <anchor x="529" y="9" name="ogonek"/>
  <anchor x="399" y="700" name="top"/>
  <outline>
    <contour>
      <point x="397" y="-13" type="curve" smooth="yes"/>
      <point x="607" y="-13"/>
      <point x="734" y="128"/>
      <point x="734" y="322" type="curve" smooth="yes"/>
      <point x="734" y="344"/>
      <point x="732" y="375"/>
      <point x="729" y="396" type="curve"/>
      <point x="364" y="396" type="line"/>
      <point x="364" y="266" type="line"/>
      <point x="617" y="266" type="line"/>
      <point x="588" y="285" type="line"/>
      <point x="579" y="181"/>
      <point x="502" y="125"/>
      <point x="400" y="125" type="curve" smooth="yes"/>
      <point x="265" y="125"/>
      <point x="187" y="221"/>
      <point x="187" y="349" type="curve" smooth="yes"/>
      <point x="187" y="477"/>
      <point x="274" y="575"/>
      <point x="400" y="575" type="curve" smooth="yes"/>
      <point x="476" y="575"/>
      <point x="519" y="555"/>
      <point x="566" y="506" type="curve"/>
      <point x="666" y="601" type="line"/>
      <point x="592" y="682"/>
      <point x="511" y="713"/>
      <point x="397" y="713" type="curve" smooth="yes"/>
      <point x="189" y="713"/>
      <point x="42" y="550"/>
      <point x="42" y="349" type="curve" smooth="yes"/>
      <point x="42" y="149"/>
      <point x="189" y="-13"/>
    </contour>
  </outline>
</glyph>
<glyph name="f_f_i.ss11" format="2">
  <advance width="881"/>
  <anchor x="757" y="0" name="bottom_1"/>
  <anchor x="736" y="0" name="ogonek_1"/>
  <anchor x="757" y="505" name="top_1"/>
  <anchor x="362" y="0" name="caret_1"/>
  <anchor x="650" y="0" name="caret_2"/>
  <outline>
    <contour>
      <point x="113" y="0" type="line"/>
      <point x="248" y="0" type="line"/>
      <point x="248" y="507" type="line" smooth="yes"/>
      <point x="248" y="562"/>
      <point x="282" y="590"/>
      <point x="327" y="590" type="curve" smooth="yes"/>
      <point x="369" y="590"/>
      <point x="401" y="564"/>
      <point x="401" y="514" type="curve" smooth="yes"/>
      <point x="401" y="0" type="line"/>
      <point x="536" y="0" type="line"/>
      <point x="536" y="507" type="line" smooth="yes"/>
      <point x="536" y="562"/>
      <point x="570" y="590"/>
      <point x="615" y="590" type="curve" smooth="yes"/>
      <point x="657" y="590"/>
      <point x="690" y="563"/>
      <point x="690" y="512" type="curve"/>
      <point x="675" y="544" type="line"/>
      <point x="826" y="544" type="line"/>
      <point x="824" y="512" type="line"/>
      <point x="824" y="642"/>
      <point x="736" y="713"/>
      <point x="615" y="713" type="curve" smooth="yes"/>
      <point x="544" y="713"/>
      <point x="474" y="672"/>
      <point x="455" y="608" type="curve"/>
      <point x="536" y="645" type="line"/>
      <point x="404" y="645" type="line"/>
      <point x="485" y="607" type="line"/>
      <point x="466" y="672"/>
      <point x="397" y="713"/>
      <point x="327" y="713" type="curve" smooth="yes"/>
      <point x="203" y="713"/>
      <point x="113" y="642"/>
      <point x="113" y="514" type="curve" smooth="yes"/>
    </contour>
    <contour>
      <point x="20" y="385" type="line"/>
      <point x="635" y="385" type="line"/>
      <point x="635" y="505" type="line"/>
      <point x="20" y="505" type="line"/>
    </contour>
    <component base="idotless" xOffset="619"/>
  </outline>
</glyph>
<glyph name="f_f_l.ss11" format="2">
  <advance width="933"/>
  <anchor x="391" y="0" name="caret_1"/>
  <anchor x="675" y="0" name="caret_2"/>
  <outline>
    <contour>
      <point x="113" y="0" type="line"/>
      <point x="248" y="0" type="line"/>
      <point x="248" y="502" type="line" smooth="yes"/>
      <point x="248" y="556"/>
      <point x="282" y="590"/>
      <point x="337" y="590" type="curve" smooth="yes"/>
      <point x="389" y="590"/>
      <point x="421" y="559"/>
      <point x="421" y="510" type="curve" smooth="yes"/>
      <point x="421" y="0" type="line"/>
      <point x="556" y="0" type="line"/>
      <point x="556" y="502" type="line" smooth="yes"/>
      <point x="556" y="556"/>
      <point x="590" y="590"/>
      <point x="645" y="590" type="curve" smooth="yes"/>
      <point x="697" y="590"/>
      <point x="729" y="559"/>
      <point x="729" y="510" type="curve" smooth="yes"/>
      <point x="729" y="0" type="line"/>
      <point x="864" y="0" type="line"/>
      <point x="864" y="498" type="line" smooth="yes"/>
      <point x="864" y="630"/>
      <point x="776" y="713"/>
      <point x="645" y="713" type="curve" smooth="yes"/>
      <point x="580" y="713"/>
      <point x="497" y="671"/>
      <point x="475" y="598" type="curve"/>
      <point x="556" y="635" type="line"/>
      <point x="424" y="635" type="line"/>
      <point x="505" y="597" type="line"/>
      <point x="483" y="672"/>
      <point x="401" y="713"/>
      <point x="337" y="713" type="curve" smooth="yes"/>
      <point x="203" y="713"/>
      <point x="113" y="630"/>
      <point x="113" y="498" type="curve" smooth="yes"/>
    </contour>
    <contour>
      <point x="20" y="385" type="line"/>
      <point x="675" y="385" type="line"/>
      <point x="675" y="505" type="line"/>
      <point x="20" y="505" type="line"/>
    </contour>
  </outline>
</glyph>
<glyph name="f_l.ss11" format="2">
  <advance width="659"/>
  <anchor x="392" y="0" name="caret_1"/>
  <outline>
    <contour>
      <point x="113" y="0" type="line"/>
      <point x="248" y="0" type="line"/>
      <point x="248" y="497" type="line" smooth="yes"/>
      <point x="248" y="554"/>
      <point x="288" y="589"/>
      <point x="352" y="589" type="curve" smooth="yes"/>
      <point x="415" y="589"/>
      <point x="455" y="556"/>
      <point x="455" y="504" type="curve" smooth="yes"/>
      <point x="455" y="0" type="line"/>
      <point x="590" y="0" type="line"/>
      <point x="590" y="514" type="line" smooth="yes"/>
      <point x="590" y="628"/>
      <point x="488" y="713"/>
      <point x="352" y="713" type="curve" smooth="yes"/>
      <point x="215" y="713"/>
      <point x="113" y="628"/>
      <point x="113" y="514" type="curve" smooth="yes"/>
    </contour>
    <contour>
      <point x="20" y="385" type="line"/>
      <point x="392" y="385" type="line"/>
      <point x="392" y="505" type="line"/>
      <point x="20" y="505" type="line"/>
    </contour>
  </outline>
</glyph>
<glyph name="f_t" format="2">
  <advance width="804"/>
  <anchor x="180" y="0" name="bottom_1"/>
  <anchor x="279" y="700" name="top_1"/>
  <anchor x="599" y="293" name="bar_2"/>
  <anchor x="644" y="0" name="bottom_2"/>
  <anchor x="573" y="276" name="center_2"/>
  <anchor x="573" y="637" name="top_2"/>
  <anchor x="702" y="700" name="topright_2"/>
  <anchor x="392" y="0" name="caret_1"/>
  <outline>
    <contour>
      <point x="209" y="385" type="line"/>
      <point x="594" y="385" type="line"/>
      <point x="604" y="505" type="line"/>
      <point x="209" y="505" type="line"/>
    </contour>
    <component base="f"/>
    <component base="t" xOffset="392"/>
  </outline>
</glyph>
<glyph name="guarani.ss02" format="2">
  <advance width="731"/>
  <anchor x="372" y="653" name="_TopCurrency"/>
  <anchor x="376" y="43" name="bottom"/>
  <anchor x="499" y="51" name="ogonek"/>
  <anchor x="376" y="666" name="top"/>
  <outline>
    <contour>
      <point x="374" y="27" type="curve" smooth="yes"/>
      <point x="568" y="27"/>
      <point x="689" y="153"/>
      <point x="689" y="325" type="curve" smooth="yes"/>
      <point x="689" y="345"/>
      <point x="687" y="373"/>
      <point x="684" y="391" type="curve"/>
      <point x="342" y="391" type="line"/>
      <point x="342" y="271" type="line"/>
      <point x="578" y="276" type="line"/>
      <point x="550" y="293" type="line"/>
      <point x="541" y="195"/>
      <point x="466" y="156"/>
      <point x="377" y="156" type="curve" smooth="yes"/>
      <point x="267" y="156"/>
      <point x="183" y="231"/>
      <point x="183" y="350" type="curve" smooth="yes"/>
      <point x="183" y="469"/>
      <point x="276" y="546"/>
      <point x="377" y="546" type="curve" smooth="yes"/>
      <point x="447" y="546"/>
      <point x="485" y="533"/>
      <point x="529" y="489" type="curve"/>
      <point x="624" y="574" type="line"/>
      <point x="554" y="646"/>
      <point x="477" y="673"/>
      <point x="374" y="673" type="curve" smooth="yes"/>
      <point x="181" y="673"/>
      <point x="42" y="528"/>
      <point x="42" y="350" type="curve" smooth="yes"/>
      <point x="42" y="172"/>
      <point x="181" y="27"/>
    </contour>
    <component base="verticalTopCurrencycomb" xOffset="372"/>
    <component base="verticalBottomCurrencycomb" xOffset="372"/>
  </outline>
</glyph>
<glyph name="horn.alt" format="2">
  <advance width="300"/>
  <anchor x="96" y="505" name="_topright"/>
  <outline>
    <contour>
      <point x="99" y="423" type="line"/>
      <point x="155" y="423"/>
      <point x="229" y="470"/>
      <point x="229" y="561" type="curve" smooth="yes"/>
      <point x="229" y="582"/>
      <point x="224" y="611"/>
      <point x="219" y="626" type="curve"/>
      <point x="105" y="626" type="line"/>
      <point x="111" y="609"/>
      <point x="114" y="591"/>
      <point x="114" y="576" type="curve" smooth="yes"/>
      <point x="115" y="534"/>
      <point x="100" y="505"/>
      <point x="14" y="505" type="curve"/>
    </contour>
  </outline>
</glyph>
<glyph name="lari.tf" format="2">
  <advance width="596"/>
  <outline>
    <contour>
      <point x="474" y="397" type="curve"/>
      <point x="601" y="395" type="line"/>
      <point x="578" y="570"/>
      <point x="475" y="683"/>
      <point x="312" y="683" type="curve" smooth="yes"/>
      <point x="144" y="683"/>
      <point x="22" y="547"/>
      <point x="22" y="359" type="curve" smooth="yes"/>
      <point x="22" y="287"/>
      <point x="54" y="207"/>
      <point x="106" y="155" type="curve"/>
      <point x="106" y="153" type="line"/>
      <point x="10" y="153" type="line"/>
      <point x="10" y="20" type="line"/>
      <point x="566" y="20" type="line"/>
      <point x="566" y="153" type="line"/>
      <point x="397" y="153" type="line" smooth="yes"/>
      <point x="225" y="153"/>
      <point x="147" y="223"/>
      <point x="147" y="359" type="curve" smooth="yes"/>
      <point x="147" y="503"/>
      <point x="201" y="569"/>
      <point x="312" y="569" type="curve" smooth="yes"/>
      <point x="404" y="569"/>
      <point x="455" y="514"/>
    </contour>
    <contour>
      <point x="326" y="775" type="line"/>
      <point x="326" y="395" type="line"/>
      <point x="416" y="395" type="line"/>
      <point x="416" y="775" type="line"/>
    </contour>
    <contour>
      <point x="202" y="775" type="line"/>
      <point x="202" y="395" type="line"/>
      <point x="292" y="395" type="line"/>
      <point x="292" y="775" type="line"/>
    </contour>
  </outline>
</glyph>
<glyph name="liraTurkish.tf" format="2">
  <advance width="596"/>
  <outline>
    <contour>
      <point x="49" y="287" type="line"/>
      <point x="516" y="387" type="line"/>
      <point x="516" y="477" type="line"/>
      <point x="49" y="377" type="line"/>
    </contour>
    <contour>
      <point x="49" y="433" type="line"/>
      <point x="516" y="533" type="line"/>
      <point x="516" y="617" type="line"/>
      <point x="49" y="522" type="line"/>
    </contour>
    <contour>
      <point x="114" y="30" type="line"/>
      <point x="251" y="30" type="line" smooth="yes"/>
      <point x="432" y="30"/>
      <point x="531" y="112"/>
      <point x="549" y="278" type="curve" smooth="yes"/>
      <point x="553" y="312" type="line"/>
      <point x="428" y="325" type="line"/>
      <point x="425" y="294" type="line" smooth="yes"/>
      <point x="415" y="210"/>
      <point x="357" y="165"/>
      <point x="291" y="165" type="curve" smooth="yes"/>
      <point x="254" y="165" type="line"/>
      <point x="254" y="670" type="line"/>
      <point x="114" y="670" type="line"/>
    </contour>
  </outline>
</glyph>
<glyph name="one.tf" format="2">
  <advance width="596"/>
  <outline>
    <contour>
      <point x="250" y="0" type="line"/>
      <point x="390" y="0" type="line"/>
      <point x="390" y="713" type="line"/>
      <point x="38" y="568" type="line"/>
      <point x="86" y="451" type="line"/>
      <point x="246" y="517" type="line"/>
      <point x="250" y="512" type="line"/>
    </contour>
    <contour>
      <point x="95" y="-1" type="line"/>
      <point x="540" y="-1" type="line"/>
      <point x="540" y="125" type="line"/>
      <point x="95" y="125" type="line"/>
    </contour>
  </outline>
</glyph>
<glyph name="zero.tf" format="2">
  <advance width="596"/>
  <outline>
    <contour>
      <point x="298" y="-13" type="curve" smooth="yes"/>
      <point x="459" y="-13"/>
      <point x="570" y="109"/>
      <point x="570" y="259" type="curve" smooth="yes"/>
      <point x="570" y="439" type="line" smooth="yes"/>
      <point x="570" y="589"/>
      <point x="459" y="711"/>
      <point x="298" y="711" type="curve" smooth="yes"/>
      <point x="137" y="711"/>
      <point x="26" y="589"/>
      <point x="26" y="439" type="curve" smooth="yes"/>
      <point x="26" y="259" type="line" smooth="yes"/>
      <point x="26" y="109"/>
      <point x="137" y="-13"/>
    </contour>
    <contour>
      <point x="298" y="117" type="curve" smooth="yes"/>
      <point x="212" y="117"/>
      <point x="171" y="184"/>
      <point x="171" y="275" type="curve" smooth="yes"/>
      <point x="171" y="422" type="line" smooth="yes"/>
      <point x="171" y="523"/>
      <point x="212" y="581"/>
      <point x="298" y="581" type="curve" smooth="yes"/>
      <point x="384" y="581"/>
      <point x="425" y="523"/>
      <point x="425" y="422" type="curve" smooth="yes"/>
      <point x="425" y="275" type="line" smooth="yes"/>
      <point x="425" y="184"/>
      <point x="384" y="117"/>
    </contour>
  </outline>
</glyph>
